<?xml version="1.0"?>
<svg width="32" height="33" xmlns="http://www.w3.org/2000/svg" xmlns:svg="http://www.w3.org/2000/svg" data-bbox="31.42216632048303 116.44930932862142 440.34868961428487 278.54943755135156">
 <g class="layer">
  <title>Layer 1</title>
  <rect data-uid="o_fdc001a14_6" fill="#ffffff" height="32" id="svg_1" width="32" x="0" y="0"/>
  <g data-uid="o_fdc001a14_23" id="svg_18" transform="matrix(0.063046 0 0 0.063046 117.048 9.39616)">
   <path d="m-172.13,3.05a1,1 0 0 0 -1.16,-0.81l-4.92,0.86a1,1 0 0 0 -0.81,1.16l0.22,1.21l-2.8,0.49l-1.69,-0.25l0,-14.82a4,4 0 0 0 -4,-4l-7,0l0,-2a3,3 0 0 0 -3,-3l-6,0a3,3 0 0 0 -3,3l0,2l-7,0a4,4 0 0 0 -4,4l0,14.82l-1.7,0.26l-2.78,-0.49l0.2,-1.22a1,1 0 0 0 -0.81,-1.16l-4.91,-0.86a1,1 0 0 0 -1.17,0.81l-3.81,21.66a1,1 0 0 0 0.81,1.16l4.92,0.87a1,1 0 0 0 1.16,-0.81l0.09,-0.54l0.83,0.15a13.05,13.05 0 0 0 3.25,4.39a3.97,3.97 0 0 0 2.88,4.05a3.98,3.98 0 0 0 5.66,5.34a3.96,3.96 0 0 0 6.14,2.67a3.96,3.96 0 0 0 5.64,2.96l0,0.01l0.41,0.26a4,4 0 0 0 5.53,-1.12a3.92,3.92 0 0 0 0.66,-2.25a3.93,3.93 0 0 0 0.98,0.14a3.99,3.99 0 0 0 4.02,-4.03a3.96,3.96 0 0 0 0.97,0.13a4,4 0 0 0 4,-4.03a3.97,3.97 0 0 0 4.95,-4.12a13.03,13.03 0 0 0 3.25,-4.4l0.84,-0.14l0.08,0.53a1,1 0 0 0 1.17,0.81l4.92,-0.87a1,1 0 0 0 0.81,-1.16l-3.83,-21.66zm-32.16,-18.16a1,1 0 0 1 1,-1l6,0a1,1 0 0 1 1,1l0,2l-8,0l0,-2zm-11,6a2,2 0 0 1 2,-2l26,0a2,2 0 0 1 2,2l0,3a3,3 0 0 1 -3,3l0,-1a1,1 0 0 0 -1,-1l-4,0a1,1 0 0 0 -1,1l0,1l-12,0l0,-1a1,1 0 0 0 -1,-1l-4,0a1,1 0 0 0 -1,1l0,1a3,3 0 0 1 -3,-3l0,-3zm25,6l0,2l-2,0l0,-2l2,0zm-18,0l0,2l-2,0l0,-2l2,0zm-7,0.97a4.95,4.95 0 0 0 3,1.03l0,1a1,1 0 0 0 1,1l4,0a1,1 0 0 0 1,-1l0,-1l12,0l0,1a1,1 0 0 0 1,1l4,0a1,1 0 0 0 1,-1l0,-1a4.95,4.95 0 0 0 3,-1.03l0,7.54l-7.61,-1.16a9.04,9.04 0 0 0 -4.88,0.62l-2.52,1.07l-2.52,-1.07a9,9 0 0 0 -4.89,-0.62l-7.59,1.16l0,-7.54l0.01,0zm-11.89,26.74l-2.95,-0.52l3.47,-19.7l2.95,0.52l-3.47,19.7zm8.41,6.82a2,2 0 0 1 0.25,-2.82l3.84,-3.21a2,2 0 0 1 2.56,3.06l-3.83,3.22a2,2 0 0 1 -2.83,-0.25l0.01,0zm5.14,6.13a2,2 0 0 1 -2.56,-3.07l4.59,-3.85a2,2 0 0 1 2.58,3.06l-4.61,3.86zm6.17,2.67a2,2 0 0 1 -2.58,-3.07l3.06,-2.57a2,2 0 0 1 2.58,3.07l-3.06,2.57zm6.14,2.67a2,2 0 0 1 -2.56,-3.06l3.06,-2.58a2,2 0 0 1 2.81,0.25l0,0a2,2 0 0 1 -0.23,2.82l-3.08,2.57zm4.69,0.11a1.98,1.98 0 0 1 -2.52,0.69l2.19,-1.84a3.99,3.99 0 0 0 0.56,-0.58a1.99,1.99 0 0 1 -0.23,1.72l0,0.01zm14.95,-11.71a2,2 0 0 1 -2.78,0.56l-8.33,-5.51a1,1 0 1 0 -1.11,1.67l6.67,4.41a2,2 0 0 1 -2.2,3.34l-6.67,-4.42a0.98,0.98 0 0 0 -0.38,-0.15a1,1 0 0 0 -0.73,1.82l5,3.31a2,2 0 0 1 -2.2,3.34l-1.14,-0.76a3.96,3.96 0 0 0 -6.2,-3.42a3.94,3.94 0 0 0 -4.58,-3.3a3.92,3.92 0 0 0 -3.31,-3.95a3.99,3.99 0 0 0 -6.33,-4.38l-3.83,3.22a3.93,3.93 0 0 0 -0.7,0.79a11,11 0 0 1 -2.31,-3.59a1,1 0 0 0 -0.77,-0.61l-1.36,-0.24l2.81,-15.98l2.95,0.52a0.96,0.96 0 0 0 0.33,0l11.45,-1.74a6.98,6.98 0 0 1 3.8,0.48l0.75,0.32l-4,1.7a4.99,4.99 0 0 0 -2.19,1.83l-3.77,5.68a3.02,3.02 0 0 0 0.84,4.16a5.01,5.01 0 0 0 6.94,-1.41l1.7,-2.59l3.67,-0.75a8.28,8.28 0 0 0 5.13,5.26a8.9,8.9 0 0 0 1.31,0.36l10.97,7.26a2,2 0 0 1 0.56,2.77l0.01,0zm4.67,-7.63a1,1 0 0 0 -0.77,0.62a10.98,10.98 0 0 1 -2.33,3.6a3.94,3.94 0 0 0 -1.05,-1.03l-8.5,-5.62a8.84,8.84 0 0 0 3.11,-1.27l1.56,-1.03a1,1 0 0 0 -1.09,-1.67l-1.56,1.03a6.98,6.98 0 0 1 -6.2,0.73a6.3,6.3 0 0 1 -3.95,-4.12c-0.06,-0.2 -0.11,-0.42 -0.17,-0.63a1,1 0 0 0 -1.17,-0.77l-4.98,1.02a1,1 0 0 0 -0.63,0.42l-1.94,2.93a3.01,3.01 0 0 1 -4.17,0.85a1.01,1.01 0 0 1 -0.28,-1.39l3.77,-5.67a3,3 0 0 1 1.31,-1.1l9.06,-3.86a7.04,7.04 0 0 1 3.81,-0.48l11.44,1.75a1.06,1.06 0 0 0 0.33,0l2.95,-0.52l2.81,15.97l-1.36,0.24zm3.61,0.93l-3.48,-19.7l2.95,-0.52l3.47,19.7l-2.94,0.52z" data-uid="o_fdc001a14_24" id="svg_19" transform="matrix(8 0 0 8 0 0)"/>
  </g>
 </g>
</svg>