<svg
      xmlns="http://www.w3.org/2000/svg"
      width="290"
      height="75"
      data-bbox="31.42216632048303 116.44930932862142 440.34868961428487 278.54943755135156"
    >
      <g className="layer">
        <path fill="none" d="M0 0H290V75H0z" data-uid="o_fdc001a14_6"></path>
        <g
          data-uid="o_fdc001a14_7"
          transform="matrix(.4869 0 0 .4869 84.046 -36.073)"
        >
          <path
            fill="rgba(233, 233, 233, 1)"
            d="M-87.98 91.48h-7.49v-4.93c0-.84-.68-1.52-1.52-1.52h-12.6c-.84 0-1.52.68-1.52 1.52v4.93h-7.49c-.9 0-1.78.3-2.5.84l-4 3.06h43.6l-4-3.06c-.72-.55-1.59-.84-2.5-.84h.02z"
            data-uid="o_fdc001a14_8"
            transform="translate(132.031 51.997) scale(1.74997)"
          ></path>
          <g
            fill="rgba(233, 233, 233, 1)"
            data-uid="o_fdc001a14_9"
            transform="translate(132.031 51.997) scale(1.74997)"
          >
            <path
              d="M-130.8 66.74c13.02 0 28.03-3.19 42.26-8.97C-76.17 52.74-65.6 46.2-58.4 39.25V29.16a9.18 9.18 0 00-9.18-9.18h-71.41a9.18 9.18 0 00-9.18 9.18v34.99c4.59 1.69 10.49 2.6 17.37 2.6v-.01z"
              data-uid="o_fdc001a14_10"
            ></path>
            <path
              d="M-91.21 71.85c-14.97 6.09-31 9.44-45.14 9.44-3.97 0-7.67-.26-11.1-.77a9.168 9.168 0 008.46 5.61h71.41a9.18 9.18 0 009.18-9.18V51.32c-7.92 7.8-19.34 15.05-32.81 20.53z"
              data-uid="o_fdc001a14_11"
            ></path>
          </g>
          <g
            fill="rgba(233, 233, 233, 1)"
            data-uid="o_fdc001a14_12"
            transform="translate(132.031 51.997) scale(1.74997)"
          >
            <path
              d="M-130.8 66.74c13.02 0 28.03-3.19 42.26-8.97 7.92-3.22 15.11-7.06 21.14-11.23v-14.6a2.96 2.96 0 00-2.96-2.96h-65.85c-1.63 0-2.96 1.33-2.96 2.96v34.3c2.59.33 5.39.51 8.37.51v-.01z"
              data-uid="o_fdc001a14_13"
            ></path>
            <path
              d="M-91.21 71.85c-5.16 2.1-10.45 3.86-15.74 5.29h36.59a2.96 2.96 0 002.96-2.96v-15.3c-6.74 4.87-14.82 9.32-23.81 12.98v-.01z"
              data-uid="o_fdc001a14_14"
            ></path>
          </g>
          <g
            fill="rgba(233,233,233,1)"
            data-uid="o_fdc001a14_15"
            transform="translate(132.031 51.997) scale(1.74997)"
          >
            <path
              d="M-79.63 34.33h4.94c.5 0 .9.4.9.9v4.94c0 .8-.97 1.21-1.54.64l-4.94-4.94a.9.9 0 01.64-1.54z"
              data-uid="o_fdc001a14_16"
            ></path>
            <path
              d="M-75.18 48.07c-.81.81-2.13.81-2.94 0l-9.77-9.77c-.81-.81-.81-2.13 0-2.94s2.13-.81 2.94 0l9.77 9.77c.81.81.81 2.13 0 2.94z"
              data-uid="o_fdc001a14_17"
            ></path>
          </g>
          <path
            fill="#3f40ea"
            d="M-87.42 60.55c-30.7 12.48-62.85 12.22-71.8-.6-5.35-7.66-1.19-18.07 9.59-27.87v-1.92c-17.47 12.16-25.38 26.77-18.17 37.1 9.77 13.98 43.55 14.79 75.46 1.82 21.94-8.92 37.29-22.04 41.55-33.91-6.71 9.14-19.66 18.49-36.63 25.38z"
            data-uid="o_fdc001a14_18"
            transform="translate(132.031 51.997) scale(1.74997)"
          ></path>
          <path
            fill="rgba(63,64,234,1)"
            d="M-57.54 42.55c-7.24 6.62-17.48 12.96-29.87 18-30.7 12.48-62.85 12.22-71.8-.6-5.35-7.66-1.19-18.07 9.59-27.87v-1.92c-1.08.75-2.12 1.51-3.12 2.27-11.68 10.63-16.12 22.16-10.13 30.73 9.77 13.98 43.55 14.79 75.46 1.82 9.83-4 18.34-8.84 25.12-14.04 4.74-4.32 8.27-8.79 10.39-13.15-1.7 1.6-3.59 3.19-5.63 4.75l-.01.01z"
            className="cls-1"
            data-style-mix-blend-mode="multiply"
            data-uid="o_fdc001a14_19"
            opacity="0.41"
            transform="translate(132.031 51.997) scale(1.74997)"
          ></path>
          <path
            fill="rgba(63, 64, 234, 1)"
            d="M-39.5 28.18l-6.53 2.84.69 7.08-4.72-5.33-6.52 2.84 3.6-6.13-4.71-5.33 6.94 1.54 3.61-6.13.69 7.08 6.95 1.54z"
            data-type="polygon"
            data-uid="o_fdc001a14_20"
            transform="translate(132.031 51.997) scale(1.74997)"
          ></path>
        </g>
        <path
          fill="#e9e9e9"
          d="M138.26 18.85v2.64h-5.46v15.82h-3.01V21.49h-5.46v-2.64h13.93zm13.37 7.91v2.64h-2.64v-3.01h-5.27v10.92h-2.64V24.13h2.64v1.88l1.88-1.88h3.39q1.09 0 1.87.77.77.78.77 1.87v-.01zm16.76 0V37.3h-2.64v-1.92l-2.26 1.92h-5.65q-1.09 0-1.87-.77-.77-.78-.77-1.87v-2.64q0-1.09.77-1.87.78-.77 1.87-.77h7.53l-2.26 2.22h-5.27v3.43h7.91v-8.66h-10.54l2.26-2.26h8.28q1.09 0 1.87.77.77.78.77 1.87v.01zm18.45-11.3V37.3h-2.64v-1.88l-1.88 1.88h-6.03q-1.09 0-1.87-.77-.77-.78-.77-1.87v-7.91q0-1.09.77-1.87.78-.77 1.87-.77h7.91v-6.03l2.64-2.64v.02zM176.3 35.04h7.91V24.5l-1.88 1.88h-6.03v8.66zm29.37 0v2.26h-10.54q-1.09 0-1.87-.77-.77-.78-.77-1.87v-7.91q0-1.09.77-1.87.78-.77 1.87-.77h7.91q1.09 0 1.87.77.77.78.77 1.87v2.64l-2.64 2.64h-7.53l2.26-2.26h5.27v-3.39h-7.91v8.66h10.54zm20.71-16.19V37.3h-3.01v-2.26l-2.26 2.26h-7.91q-1.09 0-1.87-.77-.77-.78-.77-1.87V18.84h3.01v15.82h9.79V18.84h3.01l.01.01zm19.21 7.91V37.3h-2.64V26.38h-7.91V37.3h-2.64V24.12h2.64V26l1.88-1.88h6.03q1.09 0 1.87.77.77.78.77 1.87zm7.91-7.91v3.01h-2.64v-3.01h2.64zm0 4.52V37.3h-2.64V26l2.64-2.64v.01zm13.93 11.67v2.26h-5.27q-1.09 0-1.87-.77-.77-.78-.77-1.87v-8.28h-3.77l2.26-2.26h1.51v-2.64l2.64-2.64v5.27h5.27v2.26h-5.27v8.66h5.27v.01zm16.95-10.92v18.45q0 1.09-.77 1.87-.78.77-1.87.77h-10.92l2.26-2.26h8.66v-7.53l-1.88 1.88h-6.03q-1.09 0-1.87-.77-.77-.78-.77-1.87V24.12h2.64v10.92h7.91V24.12h2.64z"
          data-uid="o_fdc001a14_21"
        ></path>
        <path
          fill="#3f40ea"
          d="M132.26 49.08v6.55h-1.21v-6.55h-2v-1h5.2v1h-2 .01zm3.26 6.55v-7.95l1.18-.1v2.39q.39-.26.85-.39.47-.13 1.09-.13.85 0 1.28.26.44.26.44.77v5.14h-1.21v-5.17h-1.4q-.59 0-.81.14-.22.15-.22.56v4.47h-1.21l.01.01zm9.17-.83q.49 0 .97-.07.47-.07 1.12-.22l.16.88q-.45.17-1.11.27-.66.1-1.36.1-.94 0-1.44-.27t-.7-.94q-.21-.67-.21-1.93 0-1.22.24-1.89.23-.67.78-.96.54-.29 1.54-.29.98 0 1.49.16t.72.54q.21.38.21 1.12 0 .88-.25 1.27t-1 .52q-.74.13-2.45.13v1.46q.48.13 1.29.13v-.01zm-.29-4.34q-.58 0-.79.14-.21.15-.21.56v1.26h1.6q.59 0 .8-.14.21-.15.21-.56v-1.26h-1.61zm10.54-1.05q.89 0 1.36.27.46.26.64.94.18.68.18 2 0 1.3-.2 1.96-.2.66-.71.92t-1.51.26h-.01q-.73 0-1.33-.09-.6-.08-1.3-.29v-7.79l1.21-.15v2.25q.28-.16.68-.22.4-.07 1-.07l-.01.01zm.91 5.11V50.4h-2.03q-.33 0-.44.06-.12.06-.12.24v4.06h2.03q.31 0 .44-.05.12-.06.12-.19zm5.29.28q.49 0 .97-.07.47-.07 1.12-.22l.16.88q-.45.17-1.11.27-.66.1-1.36.1-.94 0-1.44-.27t-.7-.94q-.21-.67-.21-1.93 0-1.22.24-1.89.23-.67.78-.96.54-.29 1.54-.29.98 0 1.49.16t.72.54q.21.38.21 1.12 0 .88-.25 1.27t-1 .52q-.74.13-2.45.13v1.46q.48.13 1.29.13v-.01zm-.29-4.34q-.58 0-.79.14-.21.15-.21.56v1.26h1.6q.59 0 .8-.14.21-.15.21-.56v-1.26h-1.61zm4.22.75q0-.93.55-1.37.55-.44 1.74-.44 1.05 0 2.01.27l-.17.88q-.3-.09-.72-.14-.41-.06-.76-.06-.73 0-1.38.11v1.43q1.45.2 2.13.42.68.21.94.57.25.36.25 1.05 0 .69-.25 1.1-.25.41-.8.6-.56.19-1.49.19-1.04 0-2.19-.35l.19-.97q.93.36 1.98.36.36 0 .64-.04t.64-.13v-1.43q-1.56-.22-2.22-.42-.67-.2-.88-.55-.22-.35-.22-1.08h.01zm8.87-.79h-1.08v4.32q.44.05.86.06l-.07.82q-.68.13-1.1.13-.46 0-.68-.22-.22-.22-.22-.68v-4.43h-.85v-.83h.85V48.3l1.21-.3v1.6h1.08v.83-.01zm7.54-.95q.91 0 1.37.26.46.26.63.92.17.66.17 1.96 0 1.32-.18 1.99-.18.67-.64.94-.46.27-1.36.27-.6 0-1-.07t-.68-.22v2.1l-1.21.15v-8.19h.56l.28.51q.25-.36.73-.5.47-.13 1.33-.13v.01zm.91 5.05v-4.06h-2.03q-.31 0-.44.05-.12.06-.12.19v4.12h2.03q.33 0 .44-.06.11-.06.11-.24h.01zm4.23.22q.24.04.56.06l-.07.82q-.45.13-.8.13-.46 0-.68-.22-.22-.22-.22-.68v-7.07l1.21-.18v7.15-.01zm4.38-5.27q.83 0 1.32.16.48.16.7.53.21.37.21 1v4.47h-.56l-.32-.6q-.44.38-.96.55-.53.18-1.2.18-1 0-1.43-.42-.42-.42-.42-1.4 0-.88.24-1.27t.95-.52q.71-.13 2.32-.13h.18v-1.46q-.45-.13-1.22-.13-.97 0-2.04.29l-.16-.88q.45-.16 1.11-.26.67-.1 1.29-.1l-.01-.01zm.05 5.36q.57 0 .77-.14.2-.15.2-.56v-1.32h-1.61q-.57 0-.78.14-.2.15-.2.56v1.32h1.62zm6.11.93q-.89 0-1.36-.27-.46-.26-.64-.92t-.18-1.95q0-1.29.18-1.96.18-.67.64-.92.46-.26 1.36-.26.5 0 1.03.06.54.06.93.16l-.15.92q-.87-.18-1.68-.18-.59 0-.82.22-.23.22-.23.79v3.23q.44.13 1.23.13.39 0 .76-.07t.89-.22l.13.88q-.41.17-.96.27t-1.13.1v-.01zm5.87-.95q.49 0 .97-.07.47-.07 1.12-.22l.16.88q-.45.17-1.11.27-.66.1-1.36.1-.94 0-1.44-.27t-.7-.94q-.21-.67-.21-1.93 0-1.22.24-1.89.23-.67.78-.96.54-.29 1.54-.29.98 0 1.49.16t.72.54q.21.38.21 1.12 0 .88-.25 1.27t-1 .52q-.74.13-2.45.13v1.46q.48.13 1.29.13v-.01zm-.29-4.34q-.58 0-.79.14-.21.15-.21.56v1.26h1.6q.59 0 .8-.14.21-.15.21-.56v-1.26h-1.61zm10.52-2l-1.29-.11v1.23h.97v.83h-.97v5.21h-1.21v-5.21h-.85v-.83h.85q.05-.83.19-1.29.14-.45.44-.64t.83-.19q.58 0 1.11.12l-.07.87v.01zm3.42 7.29q-1.09 0-1.64-.26-.55-.26-.77-.92-.22-.67-.22-1.96t.22-1.96q.22-.67.77-.92.55-.26 1.64-.26 1.1 0 1.64.26.54.26.76.92.22.66.22 1.96 0 1.29-.22 1.96-.22.67-.77.92-.55.26-1.64.26h.01zm-1.37-.99h2.15q.35 0 .46-.06.12-.06.12-.24v-4h-2.15q-.35 0-.47.06t-.12.24v4h.01zm6.37-5.17l.42.95q.54-.48.93-.75t.73-.39l.12 1.18q-.4.12-.83.33-.43.21-.73.44v4.27h-1.21v-6.05h.57v.02zm6.08 1.62q0-.93.55-1.37.55-.44 1.74-.44 1.05 0 2.01.27l-.17.88q-.3-.09-.72-.14-.41-.06-.76-.06-.73 0-1.38.11v1.43q1.45.2 2.13.42.68.21.94.57.25.36.25 1.05 0 .69-.25 1.1-.25.41-.8.6-.56.19-1.49.19-1.04 0-2.19-.35l.19-.97q.93.36 1.98.36.36 0 .64-.04t.64-.13v-1.43q-1.56-.22-2.22-.42-.67-.2-.88-.55-.22-.35-.22-1.08h.01zm6.23 4.43V47.7l1.18-.1v2.39q.39-.26.85-.39.47-.13 1.09-.13.85 0 1.28.26.44.26.44.77v5.14h-1.21v-5.17h-1.4q-.59 0-.81.14-.22.15-.22.56v4.47h-1.21l.01.01zm9.23.12q-1.09 0-1.64-.26-.55-.26-.77-.92-.22-.67-.22-1.96t.22-1.96q.22-.67.77-.92.55-.26 1.64-.26 1.1 0 1.64.26.54.26.76.92.22.66.22 1.96 0 1.29-.22 1.96-.22.67-.77.92-.55.26-1.64.26h.01zm-1.37-.99H244q.35 0 .46-.06.12-.06.12-.24v-4h-2.15q-.35 0-.47.06t-.12.24v4h.01zm8.69-5.3q.91 0 1.37.26.46.26.63.92.17.66.17 1.96 0 1.32-.18 1.99-.18.67-.64.94-.46.27-1.36.27-.6 0-1-.07t-.68-.22v2.1l-1.21.15v-8.19h.56l.28.51q.25-.36.73-.5.47-.13 1.33-.13v.01zm.91 5.05v-4.06h-2.03q-.31 0-.44.05-.12.06-.12.19v4.12h2.03q.33 0 .44-.06.11-.06.11-.24h.01zm5.97-5.05q.91 0 1.37.26.46.26.63.92.17.66.17 1.96 0 1.32-.18 1.99-.18.67-.64.94-.46.27-1.36.27-.6 0-1-.07t-.68-.22v2.1l-1.21.15v-8.19h.56l.28.51q.25-.36.73-.5.47-.13 1.33-.13v.01zm.91 5.05v-4.06h-2.03q-.31 0-.44.05-.12.06-.12.19v4.12h2.03q.33 0 .44-.06.11-.06.11-.24h.01zm2.95 1.11zm.13-5.96l1.21-.18v6.14h-1.21v-5.96zm.62-1.14q-.45 0-.6-.15-.15-.15-.15-.57 0-.43.16-.59.16-.16.59-.16.42 0 .57.16.15.16.15.59 0 .42-.15.57-.14.15-.58.15h.01zm2.77 7.1v-6.05h.56l.32.6q.46-.38 1.01-.55.54-.18 1.24-.18.85 0 1.28.26.44.26.44.77v5.14h-1.21v-5.17h-1.4q-.59 0-.81.14-.22.15-.22.56v4.47h-1.21v.01zm8.98-.89q1 .11 1.47.25t.64.38q.17.24.17.74 0 .57-.23.9-.23.33-.76.48-.53.15-1.42.15-.65 0-1.28-.1-.62-.1-1.07-.27l.16-.92q.63.16 1.07.22.44.07.9.07.93 0 1.55-.13v-.9q-1.23-.07-1.75-.19t-.52-.33l.33-1.24q-.69-.06-1.08-.29-.39-.23-.57-.69-.18-.46-.18-1.22 0-.86.22-1.34.22-.48.73-.69.51-.21 1.43-.21.93 0 1.43.21l.86-.65.6.59-.7.81q.21.46.21 1.28 0 .82-.2 1.29-.2.47-.67.69-.47.22-1.29.24l-.06.87h.01zm-1.37-3.79v2.12h1.5q.5 0 .69-.16.19-.16.19-.59v-2.12h-1.5q-.5 0-.69.16-.19.16-.19.58v.01zm5.5 2.31l-.36-5.21q0-.22.29-.22h.89q.3 0 .3.22l-.36 5.21h-.76zm-.4 1.62q0-.46.16-.64.16-.19.63-.19.46 0 .62.19.16.19.16.64 0 .46-.16.64t-.63.18q-.47 0-.63-.18-.16-.18-.16-.64h.01z"
          data-uid="o_fdc001a14_22"
        ></path>
        <g
          data-uid="o_fdc001a14_23"
          transform="matrix(.06305 0 0 .06305 117.048 9.396)"
        >
          <path
            d="M-86.13 19.55a1 1 0 00-1.15-.81l-4.93.86a1 1 0 00-.81 1.16l.22 1.21-2.8.49-1.69-.25V7.39a4 4 0 00-4-4h-7v-2a3 3 0 00-3-3h-6a3 3 0 00-3 3v2h-7a4 4 0 00-4 4v14.82l-1.69.26-2.79-.49.21-1.22a1 1 0 00-.81-1.16l-4.92-.86a1 1 0 00-1.16.81l-3.82 21.66a1 1 0 00.81 1.16l4.92.87a1 1 0 001.16-.81l.09-.54.83.15a13.05 13.05 0 003.25 4.39 3.97 3.97 0 002.88 4.05 3.98 3.98 0 005.65 5.34 3.96 3.96 0 006.15 2.67 3.96 3.96 0 005.64 2.96v.01l.4.26a4 4 0 005.54-1.12 3.92 3.92 0 00.65-2.25 3.93 3.93 0 00.99.14 3.99 3.99 0 004.01-4.03 3.96 3.96 0 00.97.13 4 4 0 004-4.03 3.97 3.97 0 004.96-4.12 13.03 13.03 0 003.25-4.4l.83-.14.09.53a1 1 0 001.16.81l4.93-.87a1 1 0 00.81-1.16l-3.83-21.66zm-32.16-18.16a1 1 0 011-1h6a1 1 0 011 1v2h-8v-2zm-11 6a2 2 0 012-2h26a2 2 0 012 2v3a3 3 0 01-3 3v-1a1 1 0 00-1-1h-4a1 1 0 00-1 1v1h-12v-1a1 1 0 00-1-1h-4a1 1 0 00-1 1v1a3 3 0 01-3-3v-3zm25 6v2h-2v-2h2zm-18 0v2h-2v-2h2zm-7 .97a4.95 4.95 0 003 1.03v1a1 1 0 001 1h4a1 1 0 001-1v-1h12v1a1 1 0 001 1h4a1 1 0 001-1v-1a4.95 4.95 0 003-1.03v7.54l-7.6-1.16a9.04 9.04 0 00-4.88.62l-2.52 1.07-2.51-1.07a9 9 0 00-4.89-.62l-7.6 1.16v-7.54zm-11.89 26.74l-2.95-.52 3.47-19.7 2.96.52-3.48 19.7zm8.42 6.82a2 2 0 01.25-2.82l3.83-3.21a2 2 0 012.57 3.06l-3.83 3.22a2 2 0 01-2.82-.25zm5.14 6.13a2 2 0 01-2.57-3.07l4.6-3.85a2 2 0 012.57 3.06l-4.6 3.86zm6.16 2.67a2 2 0 01-2.57-3.07l3.06-2.57a2 2 0 012.57 3.07l-3.06 2.57zm6.15 2.67a2 2 0 01-2.57-3.06l3.07-2.58A2 2 0 01-112 54a2 2 0 01-.24 2.82l-3.07 2.57zm4.69.11a1.98 1.98 0 01-2.53.69l2.19-1.84a3.99 3.99 0 00.57-.58 1.99 1.99 0 01-.23 1.72v.01zm14.94-11.71a2 2 0 01-2.77.56l-8.34-5.51a1 1 0 10-1.1 1.67l6.67 4.41a2 2 0 01-2.21 3.34l-6.67-4.42a.98.98 0 00-.37-.15 1 1 0 00-.73 1.82l5 3.31a2 2 0 01-2.21 3.34l-1.14-.76a3.96 3.96 0 00-6.2-3.42 3.94 3.94 0 00-4.58-3.3 3.92 3.92 0 00-3.31-3.95 3.99 3.99 0 00-6.33-4.38l-3.83 3.22a3.93 3.93 0 00-.7.79 11 11 0 01-2.32-3.59 1 1 0 00-.76-.61l-1.36-.24 2.82-15.98 2.95.52a.96.96 0 00.33 0l11.45-1.74a6.98 6.98 0 013.8.48l.74.32-3.99 1.7a4.99 4.99 0 00-2.2 1.83l-3.76 5.68a3.02 3.02 0 00.85 4.16 5.01 5.01 0 006.93-1.41l1.71-2.59 3.66-.75a8.28 8.28 0 005.13 5.26 8.9 8.9 0 001.31.36l10.97 7.26a2 2 0 01.56 2.77zm4.68-7.63a1 1 0 00-.76.62 10.98 10.98 0 01-2.33 3.6 3.94 3.94 0 00-1.05-1.03l-8.5-5.62a8.84 8.84 0 003.1-1.27l1.57-1.03a1 1 0 00-1.1-1.67l-1.56 1.03a6.98 6.98 0 01-6.2.73 6.3 6.3 0 01-3.96-4.12c-.06-.2-.11-.42-.16-.63a1 1 0 00-1.18-.77l-4.98 1.02a1 1 0 00-.63.42l-1.94 2.93a3.01 3.01 0 01-4.16.85 1.01 1.01 0 01-.28-1.39l3.76-5.67a3 3 0 011.31-1.1l9.07-3.86a7.04 7.04 0 013.8-.48l11.45 1.75a1.06 1.06 0 00.32 0l2.96-.52 2.81 15.97-1.36.24zm3.6.93l-3.48-19.7 2.96-.52 3.47 19.7-2.95.52z"
            data-uid="o_fdc001a14_24"
            transform="scale(8)"
          ></path>
        </g>
      </g>
    </svg>